M48
;GenerationSoftware,Autodesk,EAGLE,9.5.0*%
;CreationDate,2020-12-30T20:29:50Z*%
FMAT,2
ICI,OFF
METRIC,TZ,000.000
T10C0.350
T9C0.600
T8C0.700
T7C0.813
T6C0.900
T5C1.000
T4C1.016
T3C1.300
T2C1.600
T1C3.200
%
G90
M71
T1
X3150Y3200
X61950Y42307
X61953Y3242
X3150Y42291
T2
X62122Y31132
X62322Y27172
X62122Y23212
X62322Y19252
X62122Y15292
X62322Y11332
T3
X3300Y29700
X3300Y34700
T4
X9246Y10295
X6706Y10041
X4166Y10295
X1626Y10041
X7645Y3099
X10185Y3099
X3354Y21653
X3100Y19113
X3354Y16573
T5
X46415Y2838
X51495Y2838
X53361Y10787
X53361Y18407
X46440Y7410
X51520Y7410
T6
X44827Y40649
X35964Y3852
X42287Y40649
X44827Y38109
X42287Y38109
X42287Y43189
X44827Y43189
X53416Y23698
X53416Y33858
X35964Y11352
X35964Y25352
X35964Y29102
X36014Y32852
X14964Y7602
X14914Y32852
X60249Y37440
X50089Y37440
T7
X41656Y15850
X41656Y20930
X49276Y20930
X49276Y18390
X49276Y13310
X41656Y13310
X41681Y24613
X41681Y27153
X41681Y29693
X41681Y32233
X41656Y18390
X49301Y32233
X49301Y29693
X49301Y27153
X49301Y24613
T8
X23700Y43250
X17200Y42120
X15200Y42120
X13200Y42120
X11200Y42120
X9200Y42120
X25700Y43250
X27700Y43250
X29700Y43250
X19200Y42120
T9
X30982Y23406
X13208Y19044
X20323Y21672
X11125Y20853
X22193Y20396
X24435Y29794
X23495Y26924
X18434Y20954
X14021Y25476
X18161Y18898
X17043Y20549
X11684Y19253
X29261Y24816
X21809Y18995
X25334Y17154
X27051Y27381
X17958Y37008
X34925Y16967
T10
X2900Y24700
M30